<?xml version="1.0" encoding="UTF-8" standalone="no"?>
<svg
   xmlns:dc="http://purl.org/dc/elements/1.1/"
   xmlns:cc="http://creativecommons.org/ns#"
   xmlns:rdf="http://www.w3.org/1999/02/22-rdf-syntax-ns#"
   xmlns:svg="http://www.w3.org/2000/svg"
   xmlns="http://www.w3.org/2000/svg"
   version="1.1"
   viewBox="0 0 250 250"
   data-name="Layer 1"
   id="Layer_1">
  <metadata
     id="metadata14">
    <rdf:RDF>
      <cc:Work
         rdf:about="">
        <dc:format>image/svg+xml</dc:format>
        <dc:type
           rdf:resource="http://purl.org/dc/dcmitype/StillImage" />
        <dc:title>flogo-RGB-HEX-Blk-250-BRC-Site</dc:title>
      </cc:Work>
    </rdf:RDF>
  </metadata>
  <defs
     id="defs4">
    <style
       id="style2">.cls-0{fill:#000;opacity:0.85;}.cls-1{fill:#000;opacity:0;}</style>
  </defs>
  <title
     id="title6">flogo-RGB-HEX-Blk-250-BRC-Site</title>
  <path
     style="fill:#ffffff;stroke:none"
     id="path8"
     d="M236.2,0H13.8A13.8,13.8,0,0,0,0,13.8V236.2A13.8,13.8,0,0,0,13.8,250H133.54V153.32H101.07V115.48h32.47V87.63c0-32.29,19.72-49.87,48.53-49.87a267.49,267.49,0,0,1,29.11,1.48V73H191.32c-15.68,0-18.71,7.45-18.71,18.38v24.1h37.47l-4.88,37.84H172.61V250H236.2A13.8,13.8,0,0,0,250,236.2V13.8A13.8,13.8,0,0,0,236.2,0Z"
     class="cls-0" />
  <path
     d="M172.61,250V153.32H205.2l4.88-37.84H172.61V91.38c0-10.93,3-18.38,18.71-18.38h19.86V39.24a267.49,267.49,0,0,0-29.11-1.48c-28.81,0-48.53,17.58-48.53,49.87v27.85H101.07v37.84h32.47V250Z"
     class="cls-1"
     id="f" />
</svg>
