<?xml version="1.0" encoding="UTF-8" standalone="no"?>
<svg
   xmlns:dc="http://purl.org/dc/elements/1.1/"
   xmlns:cc="http://creativecommons.org/ns#"
   xmlns:rdf="http://www.w3.org/1999/02/22-rdf-syntax-ns#"
   xmlns:svg="http://www.w3.org/2000/svg"
   xmlns="http://www.w3.org/2000/svg"
   xmlns:sodipodi="http://sodipodi.sourceforge.net/DTD/sodipodi-0.dtd"
   xmlns:inkscape="http://www.inkscape.org/namespaces/inkscape"
   version="1.0"
   width="470pt"
   height="350pt"
   viewBox="0 0 470 350"
   preserveAspectRatio="xMidYMid meet"
   id="svg28"
   sodipodi:docname="parentmail-logo.svg"
   inkscape:version="0.92.3 (2405546, 2018-03-11)">
  <metadata
     id="metadata34">
    <rdf:RDF>
      <cc:Work
         rdf:about="">
        <dc:format>image/svg+xml</dc:format>
        <dc:type
           rdf:resource="http://purl.org/dc/dcmitype/StillImage" />
        <dc:title></dc:title>
      </cc:Work>
    </rdf:RDF>
  </metadata>
  <defs
     id="defs32" />
  <sodipodi:namedview
     pagecolor="#ffffff"
     bordercolor="#666666"
     borderopacity="1"
     objecttolerance="10"
     gridtolerance="10"
     guidetolerance="10"
     inkscape:pageopacity="0"
     inkscape:pageshadow="2"
     inkscape:window-width="1276"
     inkscape:window-height="1375"
     id="namedview30"
     showgrid="false"
     inkscape:zoom="0.90004589"
     inkscape:cx="479.48406"
     inkscape:cy="275.77404"
     inkscape:window-x="0"
     inkscape:window-y="0"
     inkscape:window-maximized="0"
     inkscape:current-layer="g26" />
  <g
     transform="matrix(0.1,0,0,-0.1,0,350)"
     id="g26"
     style="fill:#000000;stroke:none; opacity: 0.85;">
    <g
       id="g60"
       transform="translate(-1022.4971,6.0884204)">
      <path
         style="stroke-width:1.15118229"
         inkscape:connector-curvature="0"
         id="path2"
         d="m 5593.5728,3443.2976 c -11.5118,-4.6047 -14.9653,-89.7922 -14.9653,-372.9831 v -367.2271 h 40.2914 40.2913 v 374.1342 374.1343 l -25.326,-1.1512 c -14.9653,0 -33.3843,-3.4535 -40.2914,-6.9071 z" />
      <path
         style="stroke-width:1.15118229"
         inkscape:connector-curvature="0"
         id="path4"
         d="m 1100.5085,3066.861 v -375.2854 h 51.8032 51.8032 v 136.9906 135.8396 l 90.9434,6.9071 c 108.2111,6.9071 177.2821,34.5354 227.9341,92.0945 62.1639,71.3734 67.9198,202.6081 11.5118,277.435 -54.1055,69.0709 -118.5717,92.0946 -286.6444,96.6993 l -147.3513,4.6047 z m 247.5042,280.8885 c 27.6284,-5.7559 58.7103,-24.1748 78.2804,-46.0473 26.4772,-28.7796 31.0819,-44.8961 31.0819,-99.0017 0,-57.5591 -4.6047,-69.0709 -37.989,-102.4552 -39.1402,-39.1402 -104.7576,-57.5591 -176.1309,-49.5009 l -33.3843,3.4536 -3.4535,136.9907 c -1.1512,75.978 0,145.049 2.3023,153.1072 6.9071,17.2678 72.5245,19.5701 139.2931,3.4536 z" />
      <path
         style="stroke-width:1.15118229"
         inkscape:connector-curvature="0"
         id="path6"
         d="m 3927.8121,3351.203 c -3.4535,-43.7449 -9.2094,-176.1309 -12.663,-297.005 -3.4535,-119.723 -9.2095,-248.6554 -12.663,-284.342 l -6.9071,-66.7686 h 40.2914 39.1402 l 10.3606,264.7719 c 5.7559,146.2002 14.9654,265.9231 19.5701,268.2255 4.6048,1.1512 33.3843,-51.8032 64.4662,-118.5718 29.9308,-66.7686 70.2222,-154.2584 89.7923,-195.701 18.4189,-41.4425 47.1984,-105.9088 64.4662,-143.8978 26.4772,-59.8615 34.5354,-69.0709 64.4662,-72.5245 26.4772,-3.4535 35.6866,2.3024 41.4425,23.0237 4.6048,14.9654 41.4426,101.304 80.5828,193.3986 40.2914,92.0946 87.4899,202.6081 103.6064,245.2019 43.7449,108.2111 56.408,88.641 58.7103,-93.2458 1.1512,-80.5828 5.7559,-196.8522 10.3607,-257.8649 l 8.0582,-112.8158 h 39.1402 39.1402 V 2764.1 c 0,32.2331 -5.7559,148.5026 -11.5118,255.5625 -5.7559,108.2112 -11.5118,237.1436 -12.663,287.7956 -2.3024,113.9671 -5.7559,120.8741 -43.7449,120.8741 -34.5355,0 -29.9308,8.0583 -155.4096,-276.2837 -126.6301,-287.7956 -143.8978,-322.3311 -160.0144,-315.424 -8.0583,2.3024 -21.8724,24.1749 -29.9307,47.1985 -16.1166,43.7449 -160.0144,348.8082 -223.3294,471.9848 -31.0819,61.0126 -41.4426,72.5244 -66.7686,72.5244 -29.9307,0 -31.0819,-3.4535 -37.989,-77.1292 z" />
      <path
         style="stroke-width:1.15118229"
         inkscape:connector-curvature="0"
         id="path8"
         d="m 5380.6041,3369.6219 c -46.0473,-26.4771 -9.2094,-74.8268 47.1985,-62.1638 24.1748,4.6047 34.5355,13.8142 32.2331,26.4772 -6.9071,47.1985 -37.989,61.0127 -79.4316,35.6866 z" />
      <path
         style="stroke-width:1.15118229"
         inkscape:connector-curvature="0"
         id="path10"
         d="m 3587.0621,3360.4125 c -25.326,-6.9071 -28.7795,-14.9654 -32.2331,-72.5245 -3.4535,-64.4662 -4.6047,-65.6174 -40.2912,-69.0709 -32.2333,-3.4536 -36.8379,-8.0583 -36.8379,-37.9891 0,-31.0819 4.6046,-34.5354 37.9889,-37.989 l 36.8379,-3.4535 1.1512,-169.2238 c 0,-200.3057 10.3606,-241.7483 67.9197,-269.3767 44.8961,-23.0236 142.7466,-27.6284 189.9451,-9.2094 24.1748,9.2094 29.9307,18.4189 26.4772,43.7449 -3.4536,31.0819 -4.6047,31.0819 -73.6757,27.6284 -102.4552,-5.756 -108.2111,4.6047 -108.2111,212.9687 v 163.4679 l 72.5245,3.4535 c 71.3733,3.4536 71.3733,3.4536 71.3733,37.989 0,34.5355 0,34.5355 -71.3733,37.9891 l -71.3733,3.4535 -3.4536,71.3733 c -3.4535,75.978 -10.3606,82.8851 -66.7686,66.7686 z" />
      <path
         style="stroke-width:1.15118229"
         inkscape:connector-curvature="0"
         id="path12"
         d="m 1747.473,3221.1194 c -161.1656,-39.1402 -241.7483,-248.6554 -160.0144,-417.8792 37.989,-75.978 88.6411,-112.8158 169.2238,-120.8741 65.6174,-5.7559 125.4789,11.5118 172.6773,51.8032 24.1748,19.5701 34.5354,23.0236 34.5354,11.5118 0,-29.9307 40.2914,-54.1055 89.7923,-54.1055 46.0473,0 48.3496,2.3023 48.3496,33.3842 0,23.0237 -6.9071,34.5355 -23.0236,39.1402 -21.8725,5.756 -23.0237,16.1166 -23.0237,224.4806 0,188.7939 -2.3023,219.8758 -18.4189,225.6317 -33.3843,12.663 -62.1638,6.9071 -75.978,-14.9653 -12.663,-20.7213 -13.8142,-20.7213 -48.3497,-1.1512 -43.7448,25.326 -115.1181,35.6866 -165.7701,23.0236 z m 120.8741,-81.7339 c 73.6756,-27.6284 84.0362,-49.5009 84.0362,-174.9797 0,-113.9671 0,-113.9671 -37.989,-151.9561 -66.7685,-66.7686 -155.4095,-67.9198 -208.3639,-4.6047 -34.5355,40.2913 -46.0473,93.2457 -39.1402,178.4332 5.7559,72.5245 33.3843,116.2694 90.9434,145.049 44.8961,24.1748 65.6174,25.326 110.5135,8.0583 z" />
      <path
         style="stroke-width:1.15118229"
         inkscape:connector-curvature="0"
         id="path14"
         d="m 2346.0877,3221.1194 c -20.7213,-4.6047 -47.1985,-17.2677 -58.7103,-27.6284 -26.4772,-24.1748 -32.2331,-23.0236 -39.1402,4.6048 -6.9071,27.6284 -66.7686,32.2331 -87.4899,6.9071 -9.2094,-10.3607 -12.663,-89.7922 -10.3606,-261.3184 l 3.4535,-246.353 49.5009,-3.4536 48.3496,-3.4535 v 194.5498 c 0,192.2474 0,194.5498 28.7796,221.027 19.5701,18.4189 48.3497,29.9307 82.8851,34.5355 46.0473,4.6047 55.2568,10.3606 61.0127,34.5354 8.0583,29.9308 -5.7559,58.7103 -27.6284,56.408 -6.9071,-1.1512 -29.9307,-5.7559 -50.652,-10.3607 z" />
      <path
         style="stroke-width:1.15118229"
         inkscape:connector-curvature="0"
         id="path16"
         d="m 2628.1274,3219.9682 c -134.6884,-32.2331 -203.7593,-124.3276 -203.7593,-271.679 0,-94.3969 25.326,-155.4096 84.0363,-207.2128 51.8032,-44.8961 105.9088,-61.0127 203.7593,-59.8615 97.8505,1.1512 165.7702,20.7213 170.375,50.652 4.6047,42.5938 -12.6631,55.2568 -62.1639,41.4426 -62.1638,-17.2677 -147.3513,-16.1166 -193.3986,3.4535 -43.745,18.419 -84.0363,70.2222 -94.397,120.8742 l -6.9071,35.6866 193.3987,2.3024 194.5498,3.4536 3.4535,36.8378 c 4.6048,48.3496 -14.9653,117.4206 -46.0473,164.6191 -46.0473,66.7685 -151.956,101.304 -242.8994,79.4315 z m 111.6646,-79.4315 c 34.5355,-12.663 75.9781,-74.8269 75.9781,-111.6647 0,-26.4772 -2.3024,-26.4772 -145.049,-26.4772 -143.8978,0 -143.8978,0 -136.9907,26.4772 28.7796,94.3969 120.8742,143.8978 206.0616,111.6647 z" />
      <path
         style="stroke-width:1.15118229"
         inkscape:connector-curvature="0"
         id="path18"
         d="m 3196.8114,3219.9682 c -27.6283,-4.6047 -66.7685,-19.5701 -88.641,-32.2331 -39.1402,-23.0236 -39.1402,-23.0236 -39.1402,-1.1511 0,26.4771 -51.8032,43.7449 -79.4316,26.4771 -16.1165,-10.3606 -18.4189,-46.0472 -18.4189,-263.6207 v -252.1089 l 48.3497,-3.4536 49.5008,-3.4535 2.3024,199.1545 3.4535,199.1546 51.8032,26.4772 c 54.1056,26.4771 135.8395,33.3842 172.6774,13.8141 34.5354,-18.4189 46.0473,-85.1875 46.0473,-268.2254 v -170.375 l 49.5008,3.4535 48.3496,3.4536 3.4536,149.6537 c 4.6047,187.6427 -3.4536,259.016 -36.8378,307.3657 -40.2914,61.0126 -117.4206,84.0363 -212.9688,65.6173 z" />
      <path
         style="stroke-width:1.15118229"
         inkscape:connector-curvature="0"
         id="path20"
         d="m 4947.7597,3209.6076 c -63.3151,-14.9654 -120.8742,-62.1638 -151.9561,-122.0253 -24.1748,-47.1985 -28.7796,-72.5245 -28.7796,-148.5025 1.1512,-100.1529 14.9654,-139.2931 71.3733,-192.2475 17.2678,-17.2677 47.1985,-36.8378 64.4662,-42.5937 72.5245,-27.6284 174.9798,-8.0583 219.8759,43.7449 28.7794,32.2331 36.8377,31.0819 55.2566,-6.9071 12.663,-26.4772 24.1749,-33.3843 64.4662,-35.6867 40.2914,-3.4535 48.3497,0 48.3497,17.2678 0,11.5118 -11.5118,26.4772 -25.326,32.2331 -26.4772,11.5118 -26.4772,16.1165 -29.9308,226.7829 -2.3023,176.1309 -5.7559,215.2711 -19.5701,221.027 -25.326,9.2095 -48.3496,-3.4535 -55.2567,-28.7795 -5.7559,-21.8725 -8.0583,-21.8725 -49.5007,6.907 -23.0237,16.1166 -50.6521,28.7796 -61.0127,28.7796 -10.3607,0 -28.7796,2.3024 -41.4426,4.6047 -12.663,3.4536 -40.2914,1.1512 -61.0126,-4.6047 z m 141.5954,-70.2221 c 67.9196,-36.8379 73.6756,-50.652 74.8267,-163.4679 0,-117.4206 -13.814,-154.2584 -77.1291,-198.0034 -116.2694,-78.2804 -234.8412,4.6048 -235.9924,164.6191 0,35.6867 1.1512,67.9198 2.3024,71.3733 1.1512,3.4536 3.4536,14.9654 5.7559,25.326 6.9071,35.6867 54.1056,92.0946 90.9434,108.2112 50.652,21.8724 87.4899,19.5701 139.2931,-8.0583 z" />
      <path
         style="stroke-width:1.15118229"
         inkscape:connector-curvature="0"
         id="path22"
         d="m 5386.36,3201.5493 c -11.5118,-4.6047 -14.9653,-65.6174 -14.9653,-252.1089 v -246.353 h 40.2913 40.2914 v 247.5042 c 0,135.8395 -3.4535,247.5042 -8.0583,248.6554 -5.7559,0 -17.2677,2.3023 -26.4771,3.4535 -9.2095,2.3024 -24.1749,1.1512 -31.082,-1.1512 z" />
      <path
         style="stroke-width:1.15118229"
         inkscape:connector-curvature="0"
         id="path24"
         d="m 3310.7785,2229.9515 c -189.9451,-32.2331 -422.4839,-147.3513 -549.114,-275.1325 -94.3969,-93.2458 -133.5371,-150.8049 -178.4333,-256.7137 -50.652,-123.1765 -58.7103,-333.8429 -14.9653,-446.6587 5.7559,-16.1166 -4.6048,-20.7213 -59.8615,-26.4772 -128.9324,-14.9654 -194.5498,-32.2331 -285.4932,-75.9781 -130.0836,-62.1638 -223.3294,-150.80475 -278.5862,-262.46944 -41.4424,-82.88515 -43.7449,-93.24579 -43.7449,-198.00337 0,-101.30403 3.4537,-116.2694 37.989,-186.49153 54.1056,-111.66467 149.6537,-203.75926 269.3767,-261.31837 52.9544,-25.32601 113.9671,-50.65202 134.6883,-54.10557 20.7213,-4.60473 40.2914,-13.81418 42.5938,-20.72128 2.3023,-6.90709 -8.0583,-39.1402 -23.0237,-70.222114 -28.7795,-59.861476 -24.1748,-85.187484 11.5119,-64.466206 12.663,5.75591 133.5371,51.803197 269.3766,100.15285 135.8395,49.50084 278.5862,107.05996 316.5752,128.93242 135.8395,78.28039 247.5042,225.63172 265.9231,348.80822 11.5118,82.88513 9.2094,80.58276 70.2221,56.40793 29.9308,-11.51182 161.1655,-61.01266 291.249,-108.21113 130.0836,-47.19847 245.2019,-88.64103 256.7137,-93.24576 27.6284,-11.51183 25.326,3.45354 -20.7213,101.30404 -21.8724,47.19847 -40.2914,93.24576 -40.2914,102.45522 0,10.36064 29.9308,23.02365 81.734,36.83783 46.0473,11.51183 132.386,46.0473 193.3986,77.12921 500.7643,252.10885 620.4873,774.74565 263.6208,1156.93815 -54.1056,57.5591 -177.2821,145.049 -268.2255,191.0963 -73.6757,36.8378 -222.1782,85.1875 -309.6681,100.1528 -81.7339,14.9654 -343.0522,13.8142 -432.8444,0 z M 3653.8307,1936.4 c 24.1748,-16.1165 25.326,-23.0236 25.326,-177.282 v -161.1656 h 158.8632 c 108.2111,0 163.4679,-4.6047 172.6773,-13.8142 18.419,-18.4189 18.419,-253.2601 0,-271.679 -9.2094,-9.2094 -64.4662,-13.8142 -172.6773,-13.8142 h -158.8632 v -160.0143 c 0,-202.60805 4.6048,-196.85215 -149.6537,-196.85215 -150.8048,0 -149.6536,-1.15109 -149.6536,203.75925 v 153.1072 h -161.1655 c -191.0963,0 -184.1892,-5.7559 -184.1892,154.2585 0,148.5025 -3.4535,145.0489 191.0963,145.0489 h 154.2584 v 155.4096 c 0,196.8522 -1.1512,195.701 143.8977,198.0034 72.5245,1.1512 111.6647,-3.4535 130.0836,-14.9654 z M 2857.2126,771.40361 c 35.6867,-24.17482 43.745,-122.02532 12.663,-160.01434 -8.0582,-11.51182 -84.0363,-14.96537 -308.5168,-14.96537 -336.1453,0 -321.1799,-4.60472 -321.1799,93.24577 0,90.9434 -1.1512,90.9434 321.1799,90.9434 155.4096,0 288.9467,-4.60473 295.8538,-9.20946 z" />
    </g>
  </g>
</svg>
