<?xml version="1.0" encoding="UTF-8" standalone="no"?>
<svg
   xmlns:dc="http://purl.org/dc/elements/1.1/"
   xmlns:cc="http://creativecommons.org/ns#"
   xmlns:rdf="http://www.w3.org/1999/02/22-rdf-syntax-ns#"
   xmlns:svg="http://www.w3.org/2000/svg"
   xmlns="http://www.w3.org/2000/svg"
   version="1.1"
   viewBox="0 0 279.87181 396.01109"
   height="23.904085"
   width="16.893667"
   id="svg">
  <metadata
     id="metadata9">
    <rdf:RDF>
      <cc:Work
         rdf:about="">
        <dc:format>image/svg+xml</dc:format>
        <dc:type
           rdf:resource="http://purl.org/dc/dcmitype/StillImage" />
        <dc:title></dc:title>
      </cc:Work>
    </rdf:RDF>
  </metadata>
  <defs
     id="defs7" />
  <g
     transform="matrix(1.212825,0,0,1.212825,-91.482177,-42.999637)"
     id="svgg">
    <path
       style="fill-rule:evenodd;stroke:none"
       d="m 273.767,36.857 c -0.245,0.786 -1.043,4.091 -1.772,7.345 -0.729,3.254 -3.07,8.654 -5.202,12 l -3.877,6.084 -0.03,-4.343 c -0.07,-10.384 -5.135,-14.046 -6.245,-4.514 -2.704,23.229 -8.822,29.589 -18.413,19.142 -7.732,-8.421 -9.297,-4.639 -2.413,5.831 2.971,4.518 5.249,12.191 5.3,17.849 l 0.028,3.109 -4.16,-2.823 c -4.515,-3.064 -12.994,-3.976 -12.969,-1.394 0.057,6.097 3.73,14.242 8.695,19.283 l 5.386,5.467 -0.229,10.389 c -1.133,51.314 -29.333,82.01 -78.637,85.597 -10.498,0.763 -18.542,1.985 -22.857,3.469 l -6.658,2.292 -2.328,-2.82 c -2.55,-3.088 -6.076,-3.556 -11.787,-1.565 -4.348,1.515 -4.361,1.664 -0.656,7.117 1.698,2.498 2.922,5.875 2.894,7.979 -0.612,45.355 -1.607,49.15 -16.341,62.335 -7.39,6.614 -8.535,9.187 -9.483,21.314 -1.498,19.151 -4.418,26.05 -12.698,29.999 -3.814,1.818 -3.886,1.987 -3.886,9.07 0,9.408 0.931,9.332 12.612,-1.029 11.286,-10.009 11.95,-11.221 13.601,-24.799 2.012,-16.558 3.13,-17.726 23.037,-24.072 12.861,-4.1 21.222,-9.485 27.117,-17.465 14.273,-19.32 19.029,-21.138 59.061,-22.58 39.977,-1.439 46.197,-2.672 57.014,-11.296 3.24,-2.583 5.639,-3.542 8.858,-3.542 h 4.414 v 7.946 c 0,9.003 -1.386,12.991 -5.103,14.685 -2.491,1.135 -3.995,5.805 -4.027,12.512 -0.051,10.4 20.843,-6.353 24.587,-19.715 1.056,-3.771 3.668,-10.397 5.803,-14.725 8.077,-16.368 3.496,-22.709 -16.296,-22.557 -11.408,0.087 -11.97,-0.026 -15.416,-3.105 l -3.576,-3.195 -0.16,-13.637 c -0.133,-11.389 -0.552,-14.392 -2.54,-18.209 -7.97,-15.309 0.527,-49.222 12.84,-51.241 13.826,-2.267 18.197,-16.759 5.055,-16.759 -4.609,0 -12.828,-5.082 -17.192,-10.63 -1.362,-1.732 -4.391,-4.125 -6.731,-5.319 -11.384,-5.807 -6.588,-15.481 12.47,-25.155 9.816,-4.982 15.822,-11.949 16.839,-19.532 0.799,-5.955 -1.717,-6.068 -4.839,-0.218 -5.11,9.573 -9.506,5.449 -4.571,-4.289 3.337,-6.585 3.711,-9.715 1.039,-8.69 -1.507,0.578 -1.773,-0.132 -1.56,-4.164 0.141,-2.673 0.187,-5.76 0.103,-6.86 -0.175,-2.282 -3.425,-2.735 -4.101,-0.572"
       id="path0" />
  </g>
</svg>
